<svg width="90" height="90" viewBox="0 0 90 90" fill="none" xmlns="http://www.w3.org/2000/svg">
<path d="M55.9441 0C61.9741 0 64.9891 4.104 64.9891 8.8065C64.9891 14.679 59.7511 20.1105 52.9336 20.1105C47.2231 20.1105 43.8931 16.7355 44.0506 11.1555C44.0506 6.462 48.0151 0 55.9441 0ZM37.3906 90C32.6296 90 29.1421 87.066 32.4721 74.142L37.9351 51.228C38.8846 47.565 39.0421 46.0935 37.9351 46.0935C36.5086 46.0935 30.3346 48.6225 26.6761 51.12L24.3001 47.16C35.8741 37.323 49.1896 31.5585 54.9046 31.5585C59.6611 31.5585 60.4531 37.287 58.0771 46.0935L51.8176 70.1775C50.7106 74.43 51.1831 75.897 52.2946 75.897C53.7211 75.897 58.4011 74.133 63.0001 70.4655L65.7001 74.1285C54.4411 85.59 42.1426 90 37.3906 90Z" fill="#175ED2"/>
</svg>
