<svg width="169" height="64" viewBox="0 0 169 64" fill="none" xmlns="http://www.w3.org/2000/svg">
<mask id="path-1-inside-1_7_402" fill="white">
<path d="M44.4655 16.5277C47.9502 16.5277 49.6926 14.5231 49.6926 10.514C49.6926 7.02261 47.9502 5.27691 44.4655 5.27691H41.1301V16.5277H44.4655ZM39.2881 18.0212V3.78345H44.4655C49.1782 3.78345 51.5345 6.02697 51.5345 10.514C51.5345 15.5188 49.1782 18.0212 44.4655 18.0212H39.2881Z"/>
<path d="M63.532 3.78345V5.27691H56.0647V10.056H63.1836V11.5495H56.0647V16.5277H63.6814V18.0212H54.2228V3.78345H63.532ZM59.2508 0H61.6304L59.2508 2.37959H57.6179L59.2508 0Z"/>
<path d="M66.4692 18.0212V3.78345H72.5426C75.2508 3.78345 76.6048 4.88861 76.6048 7.09894C76.6048 8.71852 75.722 9.87679 73.9564 10.5737C75.8415 10.9255 76.7841 12.0041 76.7841 13.8096C76.7841 16.6173 75.3006 18.0212 72.3335 18.0212H66.4692ZM72.224 16.5277C73.9232 16.5277 74.7729 15.6648 74.7729 13.939C74.7729 12.2597 73.6345 11.42 71.3578 11.42H70.5613V10.2153C73.2827 9.85024 74.6434 8.86787 74.6434 7.2682C74.6434 5.94068 73.8867 5.27691 72.3734 5.27691H68.3111V16.5277H72.224Z"/>
<path d="M80.1792 18.0212H78.2676L84.3111 3.78345H86.3522L92.4256 18.0212H90.3846L88.5426 13.5408H83.8332L84.341 12.0473H87.9253L85.267 5.59552L80.1792 18.0212Z"/>
<path d="M103.975 3.78345V5.27691H99.4947V18.0212H97.6528V5.27691H93.1724V3.78345H103.975Z"/>
<path d="M41.4287 26.7231V40.9608H39.5868V26.7231H41.4287Z"/>
<path d="M45.1226 40.9608V26.7231H46.9645L55.6764 38.1929V26.7231H57.4188V40.9608H55.5768L46.865 29.3914V40.9608H45.1226Z"/>
<path d="M60.8139 40.9608V26.7231H62.6559L71.3678 38.1929V26.7231H73.1101V40.9608H71.2682L62.5563 29.3914V40.9608H60.8139Z"/>
<path d="M77.949 33.8021C77.949 37.6453 79.6847 39.5669 83.1562 39.5669C86.5547 39.5669 88.2539 37.6453 88.2539 33.8021C88.2539 30.012 86.5547 28.117 83.1562 28.117C79.6847 28.117 77.949 30.012 77.949 33.8021ZM76.0075 33.8619C76.0075 29.0363 78.3904 26.6235 83.1562 26.6235C87.849 26.6235 90.1954 29.0363 90.1954 33.8619C90.1954 38.6609 87.849 41.0604 83.1562 41.0604C78.3904 41.0604 76.0075 38.6609 76.0075 33.8619Z"/>
<path d="M105.807 26.7231L99.7635 40.9608H97.7225L91.649 26.7231H93.5905L98.8077 39.0492L103.895 26.7231H105.807Z"/>
<path d="M108.217 40.9608H106.305L112.348 26.7231H114.39L120.463 40.9608H118.422L116.58 36.4804H111.871L112.378 34.9869H115.963L113.304 28.5352L108.217 40.9608Z"/>
<path d="M132.012 26.7231V28.2166H127.532V40.9608H125.69V28.2166H121.21V26.7231H132.012Z"/>
<path d="M136.353 26.7231V40.9608H134.512V26.7231H136.353Z"/>
<path d="M141.491 33.8021C141.491 37.6453 143.227 39.5669 146.698 39.5669C150.097 39.5669 151.796 37.6453 151.796 33.8021C151.796 30.012 150.097 28.117 146.698 28.117C143.227 28.117 141.491 30.012 141.491 33.8021ZM139.549 33.8619C139.549 29.0363 141.932 26.6235 146.698 26.6235C151.391 26.6235 153.737 29.0363 153.737 33.8619C153.737 38.6609 151.391 41.0604 146.698 41.0604C141.932 41.0604 139.549 38.6609 139.549 33.8619Z"/>
<path d="M156.635 40.9608V26.7231H158.477L167.189 38.1929V26.7231H168.931V40.9608H167.089L158.377 29.3914V40.9608H156.635Z"/>
<path d="M50.0411 63.4026C48.8131 63.8009 47.4856 64 46.0585 64C41.0803 64 38.5912 61.5275 38.5912 56.5825C38.5912 51.9029 41.0803 49.5632 46.0585 49.5632C47.4856 49.5632 48.8131 49.7623 50.0411 50.1605V51.7536C48.8131 51.2889 47.552 51.0566 46.2576 51.0566C42.3746 51.0566 40.4331 52.8986 40.4331 56.5825C40.4331 60.5318 42.3746 62.5065 46.2576 62.5065C47.552 62.5065 48.8131 62.2742 50.0411 61.8096V63.4026Z"/>
<path d="M53.5557 63.9004H51.6441L57.6876 49.6627H59.7287L65.8021 63.9004H63.761L61.9191 59.42H57.2097L57.7175 57.9266H61.3018L58.6434 51.4748L53.5557 63.9004Z"/>
<path d="M67.7436 63.9004V49.6627H69.5856L78.2974 61.1325V49.6627H80.0398V63.9004H78.1979L69.486 52.3311V63.9004H67.7436Z"/>
<path d="M94.1879 63.4026C92.96 63.8009 91.6324 64 90.2053 64C85.2271 64 82.738 61.5275 82.738 56.5825C82.738 51.9029 85.2271 49.5632 90.2053 49.5632C91.6324 49.5632 92.96 49.7623 94.1879 50.1605V51.7536C92.96 51.2889 91.6988 51.0566 90.4045 51.0566C86.5215 51.0566 84.58 52.8986 84.58 56.5825C84.58 60.5318 86.5215 62.5065 90.4045 62.5065C91.6988 62.5065 92.96 62.2742 94.1879 61.8096V63.4026Z"/>
<path d="M106.544 49.6627V51.1562H99.0765V55.9353H106.195V57.4288H99.0765V62.407H106.693V63.9004H97.2346V49.6627H106.544Z"/>
<path d="M109.481 63.9004V49.6627H115.554C118.263 49.6627 119.617 50.8011 119.617 53.0778C119.617 54.9297 118.292 56.3004 115.644 57.1898L120.533 63.9004H118.103L113.573 57.4984V56.2937C116.295 55.8623 117.655 54.8168 117.655 53.1574C117.655 51.8432 116.899 51.1861 115.385 51.1861H111.323V63.9004H109.481Z"/>
<path d="M1.72281 18.9492C-0.704463 20.3446 -0.522112 25.6798 1.98721 26.7088C4.10879 27.579 6.93624 26.8787 9.13219 26.8787H24.483C26.5665 26.8787 30.352 27.9465 32.1467 26.1968C34.091 24.3012 33.77 19.5144 31.3633 18.768C29.2291 18.1057 26.6615 18.6588 24.483 18.6588H10.4556C7.93088 18.6588 4.08684 17.5906 1.72281 18.9492ZM29.7764 29.6187H11.5142C9.56546 29.6187 5.944 28.5767 4.18766 29.8547C3.02496 30.701 3.57415 35.4482 3.57415 37.0558V54.6699C3.57415 56.3608 3.10331 60.0919 3.84624 61.4795C4.33931 62.4005 5.5282 62.1066 6.22085 62.107H12.5729C14.7599 62.107 16.8023 62.0463 18.925 61.1566C29.1756 56.8595 29.7764 42.7224 29.7764 29.6187Z"/>
<path d="M20.1735 5.86857C13.593 7.8542 16.9049 18.185 23.4995 16.2795C30.4087 14.2828 27.0908 3.78123 20.1735 5.86857Z"/>
</mask>
<path d="M44.4655 16.5277C47.9502 16.5277 49.6926 14.5231 49.6926 10.514C49.6926 7.02261 47.9502 5.27691 44.4655 5.27691H41.1301V16.5277H44.4655ZM39.2881 18.0212V3.78345H44.4655C49.1782 3.78345 51.5345 6.02697 51.5345 10.514C51.5345 15.5188 49.1782 18.0212 44.4655 18.0212H39.2881Z" fill="#175ED2"/>
<path d="M63.532 3.78345V5.27691H56.0647V10.056H63.1836V11.5495H56.0647V16.5277H63.6814V18.0212H54.2228V3.78345H63.532ZM59.2508 0H61.6304L59.2508 2.37959H57.6179L59.2508 0Z" fill="#175ED2"/>
<path d="M66.4692 18.0212V3.78345H72.5426C75.2508 3.78345 76.6048 4.88861 76.6048 7.09894C76.6048 8.71852 75.722 9.87679 73.9564 10.5737C75.8415 10.9255 76.7841 12.0041 76.7841 13.8096C76.7841 16.6173 75.3006 18.0212 72.3335 18.0212H66.4692ZM72.224 16.5277C73.9232 16.5277 74.7729 15.6648 74.7729 13.939C74.7729 12.2597 73.6345 11.42 71.3578 11.42H70.5613V10.2153C73.2827 9.85024 74.6434 8.86787 74.6434 7.2682C74.6434 5.94068 73.8867 5.27691 72.3734 5.27691H68.3111V16.5277H72.224Z" fill="#175ED2"/>
<path d="M80.1792 18.0212H78.2676L84.3111 3.78345H86.3522L92.4256 18.0212H90.3846L88.5426 13.5408H83.8332L84.341 12.0473H87.9253L85.267 5.59552L80.1792 18.0212Z" fill="#175ED2"/>
<path d="M103.975 3.78345V5.27691H99.4947V18.0212H97.6528V5.27691H93.1724V3.78345H103.975Z" fill="#175ED2"/>
<path d="M41.4287 26.7231V40.9608H39.5868V26.7231H41.4287Z" fill="#175ED2"/>
<path d="M45.1226 40.9608V26.7231H46.9645L55.6764 38.1929V26.7231H57.4188V40.9608H55.5768L46.865 29.3914V40.9608H45.1226Z" fill="#175ED2"/>
<path d="M60.8139 40.9608V26.7231H62.6559L71.3678 38.1929V26.7231H73.1101V40.9608H71.2682L62.5563 29.3914V40.9608H60.8139Z" fill="#175ED2"/>
<path d="M77.949 33.8021C77.949 37.6453 79.6847 39.5669 83.1562 39.5669C86.5547 39.5669 88.2539 37.6453 88.2539 33.8021C88.2539 30.012 86.5547 28.117 83.1562 28.117C79.6847 28.117 77.949 30.012 77.949 33.8021ZM76.0075 33.8619C76.0075 29.0363 78.3904 26.6235 83.1562 26.6235C87.849 26.6235 90.1954 29.0363 90.1954 33.8619C90.1954 38.6609 87.849 41.0604 83.1562 41.0604C78.3904 41.0604 76.0075 38.6609 76.0075 33.8619Z" fill="#175ED2"/>
<path d="M105.807 26.7231L99.7635 40.9608H97.7225L91.649 26.7231H93.5905L98.8077 39.0492L103.895 26.7231H105.807Z" fill="#175ED2"/>
<path d="M108.217 40.9608H106.305L112.348 26.7231H114.39L120.463 40.9608H118.422L116.58 36.4804H111.871L112.378 34.9869H115.963L113.304 28.5352L108.217 40.9608Z" fill="#175ED2"/>
<path d="M132.012 26.7231V28.2166H127.532V40.9608H125.69V28.2166H121.21V26.7231H132.012Z" fill="#175ED2"/>
<path d="M136.353 26.7231V40.9608H134.512V26.7231H136.353Z" fill="#175ED2"/>
<path d="M141.491 33.8021C141.491 37.6453 143.227 39.5669 146.698 39.5669C150.097 39.5669 151.796 37.6453 151.796 33.8021C151.796 30.012 150.097 28.117 146.698 28.117C143.227 28.117 141.491 30.012 141.491 33.8021ZM139.549 33.8619C139.549 29.0363 141.932 26.6235 146.698 26.6235C151.391 26.6235 153.737 29.0363 153.737 33.8619C153.737 38.6609 151.391 41.0604 146.698 41.0604C141.932 41.0604 139.549 38.6609 139.549 33.8619Z" fill="#175ED2"/>
<path d="M156.635 40.9608V26.7231H158.477L167.189 38.1929V26.7231H168.931V40.9608H167.089L158.377 29.3914V40.9608H156.635Z" fill="#175ED2"/>
<path d="M50.0411 63.4026C48.8131 63.8009 47.4856 64 46.0585 64C41.0803 64 38.5912 61.5275 38.5912 56.5825C38.5912 51.9029 41.0803 49.5632 46.0585 49.5632C47.4856 49.5632 48.8131 49.7623 50.0411 50.1605V51.7536C48.8131 51.2889 47.552 51.0566 46.2576 51.0566C42.3746 51.0566 40.4331 52.8986 40.4331 56.5825C40.4331 60.5318 42.3746 62.5065 46.2576 62.5065C47.552 62.5065 48.8131 62.2742 50.0411 61.8096V63.4026Z" fill="#175ED2"/>
<path d="M53.5557 63.9004H51.6441L57.6876 49.6627H59.7287L65.8021 63.9004H63.761L61.9191 59.42H57.2097L57.7175 57.9266H61.3018L58.6434 51.4748L53.5557 63.9004Z" fill="#175ED2"/>
<path d="M67.7436 63.9004V49.6627H69.5856L78.2974 61.1325V49.6627H80.0398V63.9004H78.1979L69.486 52.3311V63.9004H67.7436Z" fill="#175ED2"/>
<path d="M94.1879 63.4026C92.96 63.8009 91.6324 64 90.2053 64C85.2271 64 82.738 61.5275 82.738 56.5825C82.738 51.9029 85.2271 49.5632 90.2053 49.5632C91.6324 49.5632 92.96 49.7623 94.1879 50.1605V51.7536C92.96 51.2889 91.6988 51.0566 90.4045 51.0566C86.5215 51.0566 84.58 52.8986 84.58 56.5825C84.58 60.5318 86.5215 62.5065 90.4045 62.5065C91.6988 62.5065 92.96 62.2742 94.1879 61.8096V63.4026Z" fill="#175ED2"/>
<path d="M106.544 49.6627V51.1562H99.0765V55.9353H106.195V57.4288H99.0765V62.407H106.693V63.9004H97.2346V49.6627H106.544Z" fill="#175ED2"/>
<path d="M109.481 63.9004V49.6627H115.554C118.263 49.6627 119.617 50.8011 119.617 53.0778C119.617 54.9297 118.292 56.3004 115.644 57.1898L120.533 63.9004H118.103L113.573 57.4984V56.2937C116.295 55.8623 117.655 54.8168 117.655 53.1574C117.655 51.8432 116.899 51.1861 115.385 51.1861H111.323V63.9004H109.481Z" fill="#175ED2"/>
<path d="M1.72281 18.9492C-0.704463 20.3446 -0.522112 25.6798 1.98721 26.7088C4.10879 27.579 6.93624 26.8787 9.13219 26.8787H24.483C26.5665 26.8787 30.352 27.9465 32.1467 26.1968C34.091 24.3012 33.77 19.5144 31.3633 18.768C29.2291 18.1057 26.6615 18.6588 24.483 18.6588H10.4556C7.93088 18.6588 4.08684 17.5906 1.72281 18.9492ZM29.7764 29.6187H11.5142C9.56546 29.6187 5.944 28.5767 4.18766 29.8547C3.02496 30.701 3.57415 35.4482 3.57415 37.0558V54.6699C3.57415 56.3608 3.10331 60.0919 3.84624 61.4795C4.33931 62.4005 5.5282 62.1066 6.22085 62.107H12.5729C14.7599 62.107 16.8023 62.0463 18.925 61.1566C29.1756 56.8595 29.7764 42.7224 29.7764 29.6187Z" fill="#175ED2"/>
<path d="M20.1735 5.86857C13.593 7.8542 16.9049 18.185 23.4995 16.2795C30.4087 14.2828 27.0908 3.78123 20.1735 5.86857Z" fill="#175ED2"/>
<path d="M44.4655 16.5277C47.9502 16.5277 49.6926 14.5231 49.6926 10.514C49.6926 7.02261 47.9502 5.27691 44.4655 5.27691H41.1301V16.5277H44.4655ZM39.2881 18.0212V3.78345H44.4655C49.1782 3.78345 51.5345 6.02697 51.5345 10.514C51.5345 15.5188 49.1782 18.0212 44.4655 18.0212H39.2881Z" stroke="#222222" stroke-width="2" mask="url(#path-1-inside-1_7_402)"/>
<path d="M63.532 3.78345V5.27691H56.0647V10.056H63.1836V11.5495H56.0647V16.5277H63.6814V18.0212H54.2228V3.78345H63.532ZM59.2508 0H61.6304L59.2508 2.37959H57.6179L59.2508 0Z" stroke="#222222" stroke-width="2" mask="url(#path-1-inside-1_7_402)"/>
<path d="M66.4692 18.0212V3.78345H72.5426C75.2508 3.78345 76.6048 4.88861 76.6048 7.09894C76.6048 8.71852 75.722 9.87679 73.9564 10.5737C75.8415 10.9255 76.7841 12.0041 76.7841 13.8096C76.7841 16.6173 75.3006 18.0212 72.3335 18.0212H66.4692ZM72.224 16.5277C73.9232 16.5277 74.7729 15.6648 74.7729 13.939C74.7729 12.2597 73.6345 11.42 71.3578 11.42H70.5613V10.2153C73.2827 9.85024 74.6434 8.86787 74.6434 7.2682C74.6434 5.94068 73.8867 5.27691 72.3734 5.27691H68.3111V16.5277H72.224Z" stroke="#222222" stroke-width="2" mask="url(#path-1-inside-1_7_402)"/>
<path d="M80.1792 18.0212H78.2676L84.3111 3.78345H86.3522L92.4256 18.0212H90.3846L88.5426 13.5408H83.8332L84.341 12.0473H87.9253L85.267 5.59552L80.1792 18.0212Z" stroke="#222222" stroke-width="2" mask="url(#path-1-inside-1_7_402)"/>
<path d="M103.975 3.78345V5.27691H99.4947V18.0212H97.6528V5.27691H93.1724V3.78345H103.975Z" stroke="#222222" stroke-width="2" mask="url(#path-1-inside-1_7_402)"/>
<path d="M41.4287 26.7231V40.9608H39.5868V26.7231H41.4287Z" stroke="#222222" stroke-width="2" mask="url(#path-1-inside-1_7_402)"/>
<path d="M45.1226 40.9608V26.7231H46.9645L55.6764 38.1929V26.7231H57.4188V40.9608H55.5768L46.865 29.3914V40.9608H45.1226Z" stroke="#222222" stroke-width="2" mask="url(#path-1-inside-1_7_402)"/>
<path d="M60.8139 40.9608V26.7231H62.6559L71.3678 38.1929V26.7231H73.1101V40.9608H71.2682L62.5563 29.3914V40.9608H60.8139Z" stroke="#222222" stroke-width="2" mask="url(#path-1-inside-1_7_402)"/>
<path d="M77.949 33.8021C77.949 37.6453 79.6847 39.5669 83.1562 39.5669C86.5547 39.5669 88.2539 37.6453 88.2539 33.8021C88.2539 30.012 86.5547 28.117 83.1562 28.117C79.6847 28.117 77.949 30.012 77.949 33.8021ZM76.0075 33.8619C76.0075 29.0363 78.3904 26.6235 83.1562 26.6235C87.849 26.6235 90.1954 29.0363 90.1954 33.8619C90.1954 38.6609 87.849 41.0604 83.1562 41.0604C78.3904 41.0604 76.0075 38.6609 76.0075 33.8619Z" stroke="#222222" stroke-width="2" mask="url(#path-1-inside-1_7_402)"/>
<path d="M105.807 26.7231L99.7635 40.9608H97.7225L91.649 26.7231H93.5905L98.8077 39.0492L103.895 26.7231H105.807Z" stroke="#222222" stroke-width="2" mask="url(#path-1-inside-1_7_402)"/>
<path d="M108.217 40.9608H106.305L112.348 26.7231H114.39L120.463 40.9608H118.422L116.58 36.4804H111.871L112.378 34.9869H115.963L113.304 28.5352L108.217 40.9608Z" stroke="#222222" stroke-width="2" mask="url(#path-1-inside-1_7_402)"/>
<path d="M132.012 26.7231V28.2166H127.532V40.9608H125.69V28.2166H121.21V26.7231H132.012Z" stroke="#222222" stroke-width="2" mask="url(#path-1-inside-1_7_402)"/>
<path d="M136.353 26.7231V40.9608H134.512V26.7231H136.353Z" stroke="#222222" stroke-width="2" mask="url(#path-1-inside-1_7_402)"/>
<path d="M141.491 33.8021C141.491 37.6453 143.227 39.5669 146.698 39.5669C150.097 39.5669 151.796 37.6453 151.796 33.8021C151.796 30.012 150.097 28.117 146.698 28.117C143.227 28.117 141.491 30.012 141.491 33.8021ZM139.549 33.8619C139.549 29.0363 141.932 26.6235 146.698 26.6235C151.391 26.6235 153.737 29.0363 153.737 33.8619C153.737 38.6609 151.391 41.0604 146.698 41.0604C141.932 41.0604 139.549 38.6609 139.549 33.8619Z" stroke="#222222" stroke-width="2" mask="url(#path-1-inside-1_7_402)"/>
<path d="M156.635 40.9608V26.7231H158.477L167.189 38.1929V26.7231H168.931V40.9608H167.089L158.377 29.3914V40.9608H156.635Z" stroke="#222222" stroke-width="2" mask="url(#path-1-inside-1_7_402)"/>
<path d="M50.0411 63.4026C48.8131 63.8009 47.4856 64 46.0585 64C41.0803 64 38.5912 61.5275 38.5912 56.5825C38.5912 51.9029 41.0803 49.5632 46.0585 49.5632C47.4856 49.5632 48.8131 49.7623 50.0411 50.1605V51.7536C48.8131 51.2889 47.552 51.0566 46.2576 51.0566C42.3746 51.0566 40.4331 52.8986 40.4331 56.5825C40.4331 60.5318 42.3746 62.5065 46.2576 62.5065C47.552 62.5065 48.8131 62.2742 50.0411 61.8096V63.4026Z" stroke="#222222" stroke-width="2" mask="url(#path-1-inside-1_7_402)"/>
<path d="M53.5557 63.9004H51.6441L57.6876 49.6627H59.7287L65.8021 63.9004H63.761L61.9191 59.42H57.2097L57.7175 57.9266H61.3018L58.6434 51.4748L53.5557 63.9004Z" stroke="#222222" stroke-width="2" mask="url(#path-1-inside-1_7_402)"/>
<path d="M67.7436 63.9004V49.6627H69.5856L78.2974 61.1325V49.6627H80.0398V63.9004H78.1979L69.486 52.3311V63.9004H67.7436Z" stroke="#222222" stroke-width="2" mask="url(#path-1-inside-1_7_402)"/>
<path d="M94.1879 63.4026C92.96 63.8009 91.6324 64 90.2053 64C85.2271 64 82.738 61.5275 82.738 56.5825C82.738 51.9029 85.2271 49.5632 90.2053 49.5632C91.6324 49.5632 92.96 49.7623 94.1879 50.1605V51.7536C92.96 51.2889 91.6988 51.0566 90.4045 51.0566C86.5215 51.0566 84.58 52.8986 84.58 56.5825C84.58 60.5318 86.5215 62.5065 90.4045 62.5065C91.6988 62.5065 92.96 62.2742 94.1879 61.8096V63.4026Z" stroke="#222222" stroke-width="2" mask="url(#path-1-inside-1_7_402)"/>
<path d="M106.544 49.6627V51.1562H99.0765V55.9353H106.195V57.4288H99.0765V62.407H106.693V63.9004H97.2346V49.6627H106.544Z" stroke="#222222" stroke-width="2" mask="url(#path-1-inside-1_7_402)"/>
<path d="M109.481 63.9004V49.6627H115.554C118.263 49.6627 119.617 50.8011 119.617 53.0778C119.617 54.9297 118.292 56.3004 115.644 57.1898L120.533 63.9004H118.103L113.573 57.4984V56.2937C116.295 55.8623 117.655 54.8168 117.655 53.1574C117.655 51.8432 116.899 51.1861 115.385 51.1861H111.323V63.9004H109.481Z" stroke="#222222" stroke-width="2" mask="url(#path-1-inside-1_7_402)"/>
<path d="M1.72281 18.9492C-0.704463 20.3446 -0.522112 25.6798 1.98721 26.7088C4.10879 27.579 6.93624 26.8787 9.13219 26.8787H24.483C26.5665 26.8787 30.352 27.9465 32.1467 26.1968C34.091 24.3012 33.77 19.5144 31.3633 18.768C29.2291 18.1057 26.6615 18.6588 24.483 18.6588H10.4556C7.93088 18.6588 4.08684 17.5906 1.72281 18.9492ZM29.7764 29.6187H11.5142C9.56546 29.6187 5.944 28.5767 4.18766 29.8547C3.02496 30.701 3.57415 35.4482 3.57415 37.0558V54.6699C3.57415 56.3608 3.10331 60.0919 3.84624 61.4795C4.33931 62.4005 5.5282 62.1066 6.22085 62.107H12.5729C14.7599 62.107 16.8023 62.0463 18.925 61.1566C29.1756 56.8595 29.7764 42.7224 29.7764 29.6187Z" stroke="#222222" stroke-width="2" mask="url(#path-1-inside-1_7_402)"/>
<path d="M20.1735 5.86857C13.593 7.8542 16.9049 18.185 23.4995 16.2795C30.4087 14.2828 27.0908 3.78123 20.1735 5.86857Z" stroke="#222222" stroke-width="2" mask="url(#path-1-inside-1_7_402)"/>
</svg>
