<svg width="396" height="150" viewBox="0 0 396 150" fill="none" xmlns="http://www.w3.org/2000/svg">
<mask id="path-1-inside-1_7_352" fill="white">
<path d="M104.216 38.7368C112.383 38.7368 116.467 34.0386 116.467 24.6422C116.467 16.4592 112.383 12.3678 104.216 12.3678H96.3986V38.7368H104.216ZM92.0815 42.2371V8.86746H104.216C115.261 8.86746 120.784 14.1257 120.784 24.6422C120.784 36.3721 115.261 42.2371 104.216 42.2371H92.0815Z"/>
<path d="M148.903 8.86746V12.3678H131.402V23.5688H148.086V27.0691H131.402V38.7368H149.253V42.2371H127.085V8.86746H148.903ZM138.869 0H144.446L138.869 5.57716H135.042L138.869 0Z"/>
<path d="M155.787 42.2371V8.86746H170.022C176.369 8.86746 179.543 11.4577 179.543 16.6381C179.543 20.434 177.474 23.1487 173.335 24.7822C177.754 25.6067 179.963 28.1347 179.963 32.3662C179.963 38.9468 176.486 42.2371 169.532 42.2371H155.787ZM169.275 38.7368C173.258 38.7368 175.249 36.7144 175.249 32.6696C175.249 28.7337 172.581 26.7657 167.245 26.7657H165.378V23.9421C171.756 23.0865 174.946 20.7841 174.946 17.0348C174.946 13.9235 173.172 12.3678 169.625 12.3678H160.104V38.7368H169.275Z"/>
<path d="M187.92 42.2371H183.44L197.604 8.86746H202.388L216.623 42.2371H211.839L207.522 31.7362H196.484L197.674 28.2358H206.075L199.844 13.1145L187.92 42.2371Z"/>
<path d="M243.692 8.86746V12.3678H233.191V42.2371H228.874V12.3678H218.373V8.86746H243.692Z"/>
<path d="M97.0986 62.6322V96.0019H92.7816V62.6322H97.0986Z"/>
<path d="M105.756 96.0019V62.6322H110.073L130.492 89.5146V62.6322H134.575V96.0019H130.258L109.84 68.8861V96.0019H105.756Z"/>
<path d="M142.533 96.0019V62.6322H146.85L167.268 89.5146V62.6322H171.352V96.0019H167.035L146.616 68.8861V96.0019H142.533Z"/>
<path d="M182.693 79.2237C182.693 88.2312 186.761 92.7349 194.897 92.7349C202.862 92.7349 206.845 88.2312 206.845 79.2237C206.845 70.3407 202.862 65.8992 194.897 65.8992C186.761 65.8992 182.693 70.3407 182.693 79.2237ZM178.142 79.3637C178.142 68.0538 183.727 62.3989 194.897 62.3989C205.896 62.3989 211.395 68.0538 211.395 79.3637C211.395 90.6114 205.896 96.2352 194.897 96.2352C183.727 96.2352 178.142 90.6114 178.142 79.3637Z"/>
<path d="M247.985 62.6322L233.821 96.0019H229.037L214.802 62.6322H219.353L231.581 91.5215L243.505 62.6322H247.985Z"/>
<path d="M253.633 96.0019H249.152L263.317 62.6322H268.1L282.335 96.0019H277.551L273.234 85.5009H262.197L263.387 82.0006H271.787L265.557 66.8793L253.633 96.0019Z"/>
<path d="M309.404 62.6322V66.1325H298.903V96.0019H294.586V66.1325H284.085V62.6322H309.404Z"/>
<path d="M319.578 62.6322V96.0019H315.261V62.6322H319.578Z"/>
<path d="M331.619 79.2237C331.619 88.2312 335.688 92.7349 343.824 92.7349C351.789 92.7349 355.772 88.2312 355.772 79.2237C355.772 70.3407 351.789 65.8992 343.824 65.8992C335.688 65.8992 331.619 70.3407 331.619 79.2237ZM327.069 79.3637C327.069 68.0538 332.654 62.3989 343.824 62.3989C354.823 62.3989 360.322 68.0538 360.322 79.3637C360.322 90.6114 354.823 96.2352 343.824 96.2352C332.654 96.2352 327.069 90.6114 327.069 79.3637Z"/>
<path d="M367.113 96.0019V62.6322H371.43L391.848 89.5146V62.6322H395.932V96.0019H391.615L371.196 68.8861V96.0019H367.113Z"/>
<path d="M117.284 148.6C114.406 149.533 111.294 150 107.95 150C96.2819 150 90.448 144.205 90.448 132.615C90.448 121.647 96.2819 116.164 107.95 116.164C111.294 116.164 114.406 116.63 117.284 117.564V121.297C114.406 120.208 111.45 119.664 108.416 119.664C99.3155 119.664 94.7651 123.981 94.7651 132.615C94.7651 141.872 99.3155 146.5 108.416 146.5C111.45 146.5 114.406 145.955 117.284 144.866V148.6Z"/>
<path d="M125.521 149.767H121.041L135.205 116.397H139.989L154.224 149.767H149.44L145.123 139.266H134.085L135.275 135.765H143.676L137.446 120.644L125.521 149.767Z"/>
<path d="M158.774 149.767V116.397H163.091L183.51 143.279V116.397H187.593V149.767H183.276L162.858 122.651V149.767H158.774Z"/>
<path d="M220.753 148.6C217.875 149.533 214.764 150 211.419 150C199.751 150 193.917 144.205 193.917 132.615C193.917 121.647 199.751 116.164 211.419 116.164C214.764 116.164 217.875 116.63 220.753 117.564V121.297C217.875 120.208 214.919 119.664 211.885 119.664C202.785 119.664 198.234 123.981 198.234 132.615C198.234 141.872 202.785 146.5 211.885 146.5C214.919 146.5 217.875 145.955 220.753 144.866V148.6Z"/>
<path d="M249.712 116.397V119.897H232.211V131.098H248.895V134.599H232.211V146.266H250.062V149.767H227.894V116.397H249.712Z"/>
<path d="M256.596 149.767V116.397H270.831C277.178 116.397 280.352 119.065 280.352 124.401C280.352 128.741 277.248 131.954 271.041 134.039L282.498 149.767H276.805L266.187 134.762V131.938C272.565 130.927 275.754 128.477 275.754 124.588C275.754 121.507 273.981 119.967 270.434 119.967H260.913V149.767H256.596Z"/>
<path d="M4.03784 44.4122C-1.65109 47.6828 -1.2237 60.187 4.65752 62.5988C9.62999 64.6382 16.2568 62.997 21.4036 62.997H57.382C62.2652 62.997 71.1375 65.4996 75.3439 61.3988C79.9008 56.9558 79.1484 45.7369 73.5078 43.9874C68.5056 42.4352 62.4879 43.7315 57.382 43.7315H24.5052C18.588 43.7315 9.57852 41.2279 4.03784 44.4122ZM69.7884 69.4188H26.9864C22.4191 69.4188 13.9312 66.9767 9.81482 69.972C7.08975 71.9554 8.37691 83.0817 8.37691 86.8495V128.133C8.37691 132.096 7.27338 140.84 9.01462 144.093C10.1703 146.251 12.9567 145.562 14.5801 145.563H29.4677C34.5934 145.563 39.3804 145.421 44.3554 143.336C68.3803 133.265 69.7884 100.131 69.7884 69.4188Z"/>
<path d="M47.2817 13.7545C31.8586 18.4083 39.6209 42.6211 55.077 38.1551C71.2705 33.4753 63.494 8.86226 47.2817 13.7545Z"/>
</mask>
<path d="M104.216 38.7368C112.383 38.7368 116.467 34.0386 116.467 24.6422C116.467 16.4592 112.383 12.3678 104.216 12.3678H96.3986V38.7368H104.216ZM92.0815 42.2371V8.86746H104.216C115.261 8.86746 120.784 14.1257 120.784 24.6422C120.784 36.3721 115.261 42.2371 104.216 42.2371H92.0815Z" fill="#175ED2"/>
<path d="M148.903 8.86746V12.3678H131.402V23.5688H148.086V27.0691H131.402V38.7368H149.253V42.2371H127.085V8.86746H148.903ZM138.869 0H144.446L138.869 5.57716H135.042L138.869 0Z" fill="#175ED2"/>
<path d="M155.787 42.2371V8.86746H170.022C176.369 8.86746 179.543 11.4577 179.543 16.6381C179.543 20.434 177.474 23.1487 173.335 24.7822C177.754 25.6067 179.963 28.1347 179.963 32.3662C179.963 38.9468 176.486 42.2371 169.532 42.2371H155.787ZM169.275 38.7368C173.258 38.7368 175.249 36.7144 175.249 32.6696C175.249 28.7337 172.581 26.7657 167.245 26.7657H165.378V23.9421C171.756 23.0865 174.946 20.7841 174.946 17.0348C174.946 13.9235 173.172 12.3678 169.625 12.3678H160.104V38.7368H169.275Z" fill="#175ED2"/>
<path d="M187.92 42.2371H183.44L197.604 8.86746H202.388L216.623 42.2371H211.839L207.522 31.7362H196.484L197.674 28.2358H206.075L199.844 13.1145L187.92 42.2371Z" fill="#175ED2"/>
<path d="M243.692 8.86746V12.3678H233.191V42.2371H228.874V12.3678H218.373V8.86746H243.692Z" fill="#175ED2"/>
<path d="M97.0986 62.6322V96.0019H92.7816V62.6322H97.0986Z" fill="#175ED2"/>
<path d="M105.756 96.0019V62.6322H110.073L130.492 89.5146V62.6322H134.575V96.0019H130.258L109.84 68.8861V96.0019H105.756Z" fill="#175ED2"/>
<path d="M142.533 96.0019V62.6322H146.85L167.268 89.5146V62.6322H171.352V96.0019H167.035L146.616 68.8861V96.0019H142.533Z" fill="#175ED2"/>
<path d="M182.693 79.2237C182.693 88.2312 186.761 92.7349 194.897 92.7349C202.862 92.7349 206.845 88.2312 206.845 79.2237C206.845 70.3407 202.862 65.8992 194.897 65.8992C186.761 65.8992 182.693 70.3407 182.693 79.2237ZM178.142 79.3637C178.142 68.0538 183.727 62.3989 194.897 62.3989C205.896 62.3989 211.395 68.0538 211.395 79.3637C211.395 90.6114 205.896 96.2352 194.897 96.2352C183.727 96.2352 178.142 90.6114 178.142 79.3637Z" fill="#175ED2"/>
<path d="M247.985 62.6322L233.821 96.0019H229.037L214.802 62.6322H219.353L231.581 91.5215L243.505 62.6322H247.985Z" fill="#175ED2"/>
<path d="M253.633 96.0019H249.152L263.317 62.6322H268.1L282.335 96.0019H277.551L273.234 85.5009H262.197L263.387 82.0006H271.787L265.557 66.8793L253.633 96.0019Z" fill="#175ED2"/>
<path d="M309.404 62.6322V66.1325H298.903V96.0019H294.586V66.1325H284.085V62.6322H309.404Z" fill="#175ED2"/>
<path d="M319.578 62.6322V96.0019H315.261V62.6322H319.578Z" fill="#175ED2"/>
<path d="M331.619 79.2237C331.619 88.2312 335.688 92.7349 343.824 92.7349C351.789 92.7349 355.772 88.2312 355.772 79.2237C355.772 70.3407 351.789 65.8992 343.824 65.8992C335.688 65.8992 331.619 70.3407 331.619 79.2237ZM327.069 79.3637C327.069 68.0538 332.654 62.3989 343.824 62.3989C354.823 62.3989 360.322 68.0538 360.322 79.3637C360.322 90.6114 354.823 96.2352 343.824 96.2352C332.654 96.2352 327.069 90.6114 327.069 79.3637Z" fill="#175ED2"/>
<path d="M367.113 96.0019V62.6322H371.43L391.848 89.5146V62.6322H395.932V96.0019H391.615L371.196 68.8861V96.0019H367.113Z" fill="#175ED2"/>
<path d="M117.284 148.6C114.406 149.533 111.294 150 107.95 150C96.2819 150 90.448 144.205 90.448 132.615C90.448 121.647 96.2819 116.164 107.95 116.164C111.294 116.164 114.406 116.63 117.284 117.564V121.297C114.406 120.208 111.45 119.664 108.416 119.664C99.3155 119.664 94.7651 123.981 94.7651 132.615C94.7651 141.872 99.3155 146.5 108.416 146.5C111.45 146.5 114.406 145.955 117.284 144.866V148.6Z" fill="#175ED2"/>
<path d="M125.521 149.767H121.041L135.205 116.397H139.989L154.224 149.767H149.44L145.123 139.266H134.085L135.275 135.765H143.676L137.446 120.644L125.521 149.767Z" fill="#175ED2"/>
<path d="M158.774 149.767V116.397H163.091L183.51 143.279V116.397H187.593V149.767H183.276L162.858 122.651V149.767H158.774Z" fill="#175ED2"/>
<path d="M220.753 148.6C217.875 149.533 214.764 150 211.419 150C199.751 150 193.917 144.205 193.917 132.615C193.917 121.647 199.751 116.164 211.419 116.164C214.764 116.164 217.875 116.63 220.753 117.564V121.297C217.875 120.208 214.919 119.664 211.885 119.664C202.785 119.664 198.234 123.981 198.234 132.615C198.234 141.872 202.785 146.5 211.885 146.5C214.919 146.5 217.875 145.955 220.753 144.866V148.6Z" fill="#175ED2"/>
<path d="M249.712 116.397V119.897H232.211V131.098H248.895V134.599H232.211V146.266H250.062V149.767H227.894V116.397H249.712Z" fill="#175ED2"/>
<path d="M256.596 149.767V116.397H270.831C277.178 116.397 280.352 119.065 280.352 124.401C280.352 128.741 277.248 131.954 271.041 134.039L282.498 149.767H276.805L266.187 134.762V131.938C272.565 130.927 275.754 128.477 275.754 124.588C275.754 121.507 273.981 119.967 270.434 119.967H260.913V149.767H256.596Z" fill="#175ED2"/>
<path d="M4.03784 44.4122C-1.65109 47.6828 -1.2237 60.187 4.65752 62.5988C9.62999 64.6382 16.2568 62.997 21.4036 62.997H57.382C62.2652 62.997 71.1375 65.4996 75.3439 61.3988C79.9008 56.9558 79.1484 45.7369 73.5078 43.9874C68.5056 42.4352 62.4879 43.7315 57.382 43.7315H24.5052C18.588 43.7315 9.57852 41.2279 4.03784 44.4122ZM69.7884 69.4188H26.9864C22.4191 69.4188 13.9312 66.9767 9.81482 69.972C7.08975 71.9554 8.37691 83.0817 8.37691 86.8495V128.133C8.37691 132.096 7.27338 140.84 9.01462 144.093C10.1703 146.251 12.9567 145.562 14.5801 145.563H29.4677C34.5934 145.563 39.3804 145.421 44.3554 143.336C68.3803 133.265 69.7884 100.131 69.7884 69.4188Z" fill="#175ED2"/>
<path d="M47.2817 13.7545C31.8586 18.4083 39.6209 42.6211 55.077 38.1551C71.2705 33.4753 63.494 8.86226 47.2817 13.7545Z" fill="#175ED2"/>
<path d="M104.216 38.7368C112.383 38.7368 116.467 34.0386 116.467 24.6422C116.467 16.4592 112.383 12.3678 104.216 12.3678H96.3986V38.7368H104.216ZM92.0815 42.2371V8.86746H104.216C115.261 8.86746 120.784 14.1257 120.784 24.6422C120.784 36.3721 115.261 42.2371 104.216 42.2371H92.0815Z" stroke="white" stroke-width="6" mask="url(#path-1-inside-1_7_352)"/>
<path d="M148.903 8.86746V12.3678H131.402V23.5688H148.086V27.0691H131.402V38.7368H149.253V42.2371H127.085V8.86746H148.903ZM138.869 0H144.446L138.869 5.57716H135.042L138.869 0Z" stroke="white" stroke-width="6" mask="url(#path-1-inside-1_7_352)"/>
<path d="M155.787 42.2371V8.86746H170.022C176.369 8.86746 179.543 11.4577 179.543 16.6381C179.543 20.434 177.474 23.1487 173.335 24.7822C177.754 25.6067 179.963 28.1347 179.963 32.3662C179.963 38.9468 176.486 42.2371 169.532 42.2371H155.787ZM169.275 38.7368C173.258 38.7368 175.249 36.7144 175.249 32.6696C175.249 28.7337 172.581 26.7657 167.245 26.7657H165.378V23.9421C171.756 23.0865 174.946 20.7841 174.946 17.0348C174.946 13.9235 173.172 12.3678 169.625 12.3678H160.104V38.7368H169.275Z" stroke="white" stroke-width="6" mask="url(#path-1-inside-1_7_352)"/>
<path d="M187.92 42.2371H183.44L197.604 8.86746H202.388L216.623 42.2371H211.839L207.522 31.7362H196.484L197.674 28.2358H206.075L199.844 13.1145L187.92 42.2371Z" stroke="white" stroke-width="6" mask="url(#path-1-inside-1_7_352)"/>
<path d="M243.692 8.86746V12.3678H233.191V42.2371H228.874V12.3678H218.373V8.86746H243.692Z" stroke="white" stroke-width="6" mask="url(#path-1-inside-1_7_352)"/>
<path d="M97.0986 62.6322V96.0019H92.7816V62.6322H97.0986Z" stroke="white" stroke-width="6" mask="url(#path-1-inside-1_7_352)"/>
<path d="M105.756 96.0019V62.6322H110.073L130.492 89.5146V62.6322H134.575V96.0019H130.258L109.84 68.8861V96.0019H105.756Z" stroke="white" stroke-width="6" mask="url(#path-1-inside-1_7_352)"/>
<path d="M142.533 96.0019V62.6322H146.85L167.268 89.5146V62.6322H171.352V96.0019H167.035L146.616 68.8861V96.0019H142.533Z" stroke="white" stroke-width="6" mask="url(#path-1-inside-1_7_352)"/>
<path d="M182.693 79.2237C182.693 88.2312 186.761 92.7349 194.897 92.7349C202.862 92.7349 206.845 88.2312 206.845 79.2237C206.845 70.3407 202.862 65.8992 194.897 65.8992C186.761 65.8992 182.693 70.3407 182.693 79.2237ZM178.142 79.3637C178.142 68.0538 183.727 62.3989 194.897 62.3989C205.896 62.3989 211.395 68.0538 211.395 79.3637C211.395 90.6114 205.896 96.2352 194.897 96.2352C183.727 96.2352 178.142 90.6114 178.142 79.3637Z" stroke="white" stroke-width="6" mask="url(#path-1-inside-1_7_352)"/>
<path d="M247.985 62.6322L233.821 96.0019H229.037L214.802 62.6322H219.353L231.581 91.5215L243.505 62.6322H247.985Z" stroke="white" stroke-width="6" mask="url(#path-1-inside-1_7_352)"/>
<path d="M253.633 96.0019H249.152L263.317 62.6322H268.1L282.335 96.0019H277.551L273.234 85.5009H262.197L263.387 82.0006H271.787L265.557 66.8793L253.633 96.0019Z" stroke="white" stroke-width="6" mask="url(#path-1-inside-1_7_352)"/>
<path d="M309.404 62.6322V66.1325H298.903V96.0019H294.586V66.1325H284.085V62.6322H309.404Z" stroke="white" stroke-width="6" mask="url(#path-1-inside-1_7_352)"/>
<path d="M319.578 62.6322V96.0019H315.261V62.6322H319.578Z" stroke="white" stroke-width="6" mask="url(#path-1-inside-1_7_352)"/>
<path d="M331.619 79.2237C331.619 88.2312 335.688 92.7349 343.824 92.7349C351.789 92.7349 355.772 88.2312 355.772 79.2237C355.772 70.3407 351.789 65.8992 343.824 65.8992C335.688 65.8992 331.619 70.3407 331.619 79.2237ZM327.069 79.3637C327.069 68.0538 332.654 62.3989 343.824 62.3989C354.823 62.3989 360.322 68.0538 360.322 79.3637C360.322 90.6114 354.823 96.2352 343.824 96.2352C332.654 96.2352 327.069 90.6114 327.069 79.3637Z" stroke="white" stroke-width="6" mask="url(#path-1-inside-1_7_352)"/>
<path d="M367.113 96.0019V62.6322H371.43L391.848 89.5146V62.6322H395.932V96.0019H391.615L371.196 68.8861V96.0019H367.113Z" stroke="white" stroke-width="6" mask="url(#path-1-inside-1_7_352)"/>
<path d="M117.284 148.6C114.406 149.533 111.294 150 107.95 150C96.2819 150 90.448 144.205 90.448 132.615C90.448 121.647 96.2819 116.164 107.95 116.164C111.294 116.164 114.406 116.63 117.284 117.564V121.297C114.406 120.208 111.45 119.664 108.416 119.664C99.3155 119.664 94.7651 123.981 94.7651 132.615C94.7651 141.872 99.3155 146.5 108.416 146.5C111.45 146.5 114.406 145.955 117.284 144.866V148.6Z" stroke="white" stroke-width="6" mask="url(#path-1-inside-1_7_352)"/>
<path d="M125.521 149.767H121.041L135.205 116.397H139.989L154.224 149.767H149.44L145.123 139.266H134.085L135.275 135.765H143.676L137.446 120.644L125.521 149.767Z" stroke="white" stroke-width="6" mask="url(#path-1-inside-1_7_352)"/>
<path d="M158.774 149.767V116.397H163.091L183.51 143.279V116.397H187.593V149.767H183.276L162.858 122.651V149.767H158.774Z" stroke="white" stroke-width="6" mask="url(#path-1-inside-1_7_352)"/>
<path d="M220.753 148.6C217.875 149.533 214.764 150 211.419 150C199.751 150 193.917 144.205 193.917 132.615C193.917 121.647 199.751 116.164 211.419 116.164C214.764 116.164 217.875 116.63 220.753 117.564V121.297C217.875 120.208 214.919 119.664 211.885 119.664C202.785 119.664 198.234 123.981 198.234 132.615C198.234 141.872 202.785 146.5 211.885 146.5C214.919 146.5 217.875 145.955 220.753 144.866V148.6Z" stroke="white" stroke-width="6" mask="url(#path-1-inside-1_7_352)"/>
<path d="M249.712 116.397V119.897H232.211V131.098H248.895V134.599H232.211V146.266H250.062V149.767H227.894V116.397H249.712Z" stroke="white" stroke-width="6" mask="url(#path-1-inside-1_7_352)"/>
<path d="M256.596 149.767V116.397H270.831C277.178 116.397 280.352 119.065 280.352 124.401C280.352 128.741 277.248 131.954 271.041 134.039L282.498 149.767H276.805L266.187 134.762V131.938C272.565 130.927 275.754 128.477 275.754 124.588C275.754 121.507 273.981 119.967 270.434 119.967H260.913V149.767H256.596Z" stroke="white" stroke-width="6" mask="url(#path-1-inside-1_7_352)"/>
<path d="M4.03784 44.4122C-1.65109 47.6828 -1.2237 60.187 4.65752 62.5988C9.62999 64.6382 16.2568 62.997 21.4036 62.997H57.382C62.2652 62.997 71.1375 65.4996 75.3439 61.3988C79.9008 56.9558 79.1484 45.7369 73.5078 43.9874C68.5056 42.4352 62.4879 43.7315 57.382 43.7315H24.5052C18.588 43.7315 9.57852 41.2279 4.03784 44.4122ZM69.7884 69.4188H26.9864C22.4191 69.4188 13.9312 66.9767 9.81482 69.972C7.08975 71.9554 8.37691 83.0817 8.37691 86.8495V128.133C8.37691 132.096 7.27338 140.84 9.01462 144.093C10.1703 146.251 12.9567 145.562 14.5801 145.563H29.4677C34.5934 145.563 39.3804 145.421 44.3554 143.336C68.3803 133.265 69.7884 100.131 69.7884 69.4188Z" stroke="white" stroke-width="6" mask="url(#path-1-inside-1_7_352)"/>
<path d="M47.2817 13.7545C31.8586 18.4083 39.6209 42.6211 55.077 38.1551C71.2705 33.4753 63.494 8.86226 47.2817 13.7545Z" stroke="white" stroke-width="6" mask="url(#path-1-inside-1_7_352)"/>
</svg>
