<svg width="19" height="16" viewBox="0 0 19 16" fill="none" xmlns="http://www.w3.org/2000/svg">
<path d="M17.3205 3.36951H1.57529C0.7057 3.36951 0 2.61477 0 1.68475C0 0.754736 0.7057 0 1.57529 0H17.3224C18.192 0 18.8977 0.754736 18.8977 1.68475C18.8958 2.61683 18.1901 3.36951 17.3205 3.36951V3.36951ZM17.3205 9.68578H1.57529C0.7057 9.68578 0 8.93105 0 8.00103C0 7.07101 0.7057 6.31628 1.57529 6.31628H17.3224C18.192 6.31628 18.8977 7.07101 18.8977 8.00103C18.8958 8.93105 18.1901 9.68578 17.3205 9.68578V9.68578ZM17.3205 16H1.57529C0.7057 16 0 15.2453 0 14.3152C0 13.3852 0.7057 12.6305 1.57529 12.6305H17.3224C18.192 12.6305 18.8977 13.3852 18.8977 14.3152C18.8958 15.2453 18.1901 16 17.3205 16V16Z" fill="#175ED2"/>
</svg>
