<svg width="90" height="90" viewBox="0 0 90 90" fill="none" xmlns="http://www.w3.org/2000/svg">
<path d="M2.8125 14.0625V75.9375H87.1875V14.0625H2.8125ZM55.2262 47.8659C57.0281 49.346 59.2873 50.1555 61.6191 50.1567C67.268 50.1567 71.8439 45.5386 71.8439 39.8433C71.8439 34.148 67.268 29.5312 61.6191 29.5312C59.2876 29.5325 57.0285 30.3415 55.2262 31.8206V24.3745H76.9584V55.312H55.2262V47.8659ZM34.7723 55.312H13.0388V24.3745H34.7709V55.312H34.7723ZM34.7723 20.5073H9.20391V59.1792H34.7723V63.0464H5.36906V16.6402H34.7709V20.5073H34.7723ZM52.6697 63.0506H37.3289V17.9297H52.6697V63.0506V63.0506ZM84.6309 63.0464H55.2262V59.1792H80.7947V20.5073H55.2262V16.6402H84.6295V63.0464H84.6309Z" fill="#175ED2"/>
<path d="M28.8112 49.5112C29.5256 49.5112 30.2428 49.4409 30.9375 49.3003L30.3609 46.7803C28.7706 47.1031 27.1191 46.9183 25.6395 46.2519C24.1599 45.5855 22.9269 44.4712 22.1147 43.0664H30.645V40.4887H21.1823C21.112 40.0669 21.067 39.6394 21.067 39.1992C21.067 38.7591 21.112 38.3316 21.1823 37.9097H30.645V35.332H22.1147C22.9268 33.927 24.1597 32.8127 25.6393 32.1463C27.119 31.4799 28.7706 31.2951 30.3609 31.6181L30.9375 29.0981C30.2376 28.9567 29.5253 28.886 28.8112 28.8872C26.7373 28.8814 24.7082 29.4906 22.9804 30.6377C21.2525 31.7848 19.9036 33.4184 19.1039 35.332H15.5967V37.9097H18.4233C18.3712 38.333 18.3347 38.7605 18.3347 39.1992C18.3347 39.638 18.3712 40.0655 18.4233 40.4887H15.5967V43.0664H19.1039C19.9036 44.98 21.2525 46.6136 22.9804 47.7607C24.7082 48.9078 26.7373 49.517 28.8112 49.5112Z" fill="#175ED2"/>
</svg>
