<svg width="90" height="90" viewBox="0 0 90 90" fill="none" xmlns="http://www.w3.org/2000/svg">
<path d="M70.3125 59.0625C67.8191 59.0657 65.3972 59.8957 63.4259 61.4225C61.4547 62.9493 60.0454 65.0867 59.4186 67.5H25.3125C22.3288 67.5 19.4673 66.3147 17.3575 64.2049C15.2478 62.0952 14.0625 59.2337 14.0625 56.25C14.0625 53.2663 15.2478 50.4048 17.3575 48.2951C19.4673 46.1853 22.3288 45 25.3125 45H59.0625C62.7921 45 66.369 43.5184 69.0062 40.8812C71.6434 38.244 73.125 34.6671 73.125 30.9375C73.125 27.2079 71.6434 23.631 69.0062 20.9938C66.369 18.3566 62.7921 16.875 59.0625 16.875H25.3125C24.5666 16.875 23.8512 17.1713 23.3238 17.6988C22.7963 18.2262 22.5 18.9416 22.5 19.6875C22.5 20.4334 22.7963 21.1488 23.3238 21.6762C23.8512 22.2037 24.5666 22.5 25.3125 22.5H59.0625C61.3003 22.5 63.4464 23.3889 65.0287 24.9713C66.6111 26.5536 67.5 28.6997 67.5 30.9375C67.5 33.1753 66.6111 35.3214 65.0287 36.9037C63.4464 38.4861 61.3003 39.375 59.0625 39.375H25.3125C20.837 39.375 16.5448 41.1529 13.3801 44.3176C10.2154 47.4822 8.4375 51.7745 8.4375 56.25C8.4375 60.7255 10.2154 65.0178 13.3801 68.1824C16.5448 71.3471 20.837 73.125 25.3125 73.125H59.4186C59.9445 75.1625 61.0313 77.0117 62.5555 78.4625C64.0798 79.9133 65.9803 80.9075 68.0413 81.3323C70.1022 81.7571 72.241 81.5953 74.2147 80.8654C76.1884 80.1356 77.9177 78.8668 79.2064 77.2033C80.4951 75.5397 81.2915 73.5481 81.505 71.4547C81.7185 69.3613 81.3406 67.2499 80.4142 65.3605C79.4879 63.4711 78.0502 61.8793 76.2646 60.766C74.4789 59.6527 72.4168 59.0625 70.3125 59.0625V59.0625ZM70.3125 75.9375C69.2 75.9375 68.1124 75.6076 67.1874 74.9895C66.2624 74.3714 65.5414 73.4929 65.1157 72.4651C64.6899 71.4373 64.5785 70.3063 64.7956 69.2151C65.0126 68.124 65.5484 67.1217 66.335 66.335C67.1217 65.5484 68.124 65.0126 69.2151 64.7956C70.3063 64.5785 71.4373 64.6899 72.4651 65.1157C73.4929 65.5414 74.3714 66.2624 74.9895 67.1874C75.6076 68.1124 75.9375 69.2 75.9375 70.3125C75.9358 71.8038 75.3427 73.2336 74.2881 74.2881C73.2336 75.3427 71.8038 75.9358 70.3125 75.9375V75.9375Z" fill="#175ED2"/>
</svg>
