<svg width="90" height="90" viewBox="0 0 90 90" fill="none" xmlns="http://www.w3.org/2000/svg">
<path d="M16.875 16.875C16.875 13.8913 18.0603 11.0298 20.17 8.92005C22.2798 6.81026 25.1413 5.625 28.125 5.625C31.1087 5.625 33.9702 6.81026 36.08 8.92005C38.1897 11.0298 39.375 13.8913 39.375 16.875C39.375 19.8587 38.1897 22.7202 36.08 24.83C33.9702 26.9397 31.1087 28.125 28.125 28.125C25.1413 28.125 22.2798 26.9397 20.17 24.83C18.0603 22.7202 16.875 19.8587 16.875 16.875Z" fill="#175ED2"/>
<path d="M55.0068 25.785L55.2431 25.965C57.6297 27.7341 60.6193 28.4873 63.5592 28.0604C66.4992 27.6334 69.151 26.0609 70.9358 23.6859C72.7206 21.311 73.4935 18.3265 73.086 15.3838C72.6784 12.4411 71.1234 9.77901 68.7603 7.97856C66.3973 6.17811 63.4179 5.38546 60.4726 5.77359C57.5272 6.16172 54.855 7.69911 53.039 10.0503C51.223 12.4014 50.4106 15.3754 50.7793 18.3233C51.148 21.2711 52.6677 23.9535 55.0068 25.785Z" fill="#175ED2"/>
<path d="M35.2573 33.75C35.9639 32.4121 36.933 31.2306 38.1067 30.2759C39.2804 29.3213 40.6346 28.6132 42.0883 28.194C43.542 27.7748 45.0653 27.6531 46.5671 27.8363C48.0689 28.0194 49.5183 28.5036 50.8287 29.2598C52.139 30.016 53.2834 31.0288 54.1933 32.2375C55.1032 33.4463 55.76 34.8261 56.1243 36.2945C56.4886 37.7629 56.553 39.2897 56.3136 40.7836C56.0742 42.2774 55.536 43.7077 54.7311 44.9887C53.1826 47.4532 50.7393 49.2216 47.9144 49.9225C45.0895 50.6234 42.1029 50.2021 39.582 48.7473C37.0611 47.2924 35.2022 44.9172 34.3958 42.1206C33.5894 39.324 33.8982 36.3237 35.2573 33.75Z" fill="#175ED2"/>
<path d="M14.0625 33.75H29.0813C28.4625 35.5106 28.125 37.4062 28.125 39.375C28.125 43.695 29.7506 47.6437 32.4225 50.625H30.9375C28.0375 50.6246 25.2082 51.5204 22.8368 53.1899C20.4655 54.8594 18.6681 57.2209 17.6906 59.9512C15.8025 59.1928 14.0346 58.1639 12.4425 56.8969C8.2125 53.4937 5.625 48.465 5.625 42.1875C5.625 39.9497 6.51395 37.8036 8.09629 36.2213C9.67863 34.6389 11.8247 33.75 14.0625 33.75Z" fill="#175ED2"/>
<path d="M59.0626 50.625C65.1658 50.625 70.3633 54.5119 72.3039 59.9512C74.2164 59.1694 75.9883 58.1512 77.5576 56.8969C81.7876 53.4937 84.3751 48.465 84.3751 42.1875C84.3751 39.9497 83.4862 37.8036 81.9039 36.2213C80.3215 34.6389 78.1754 33.75 75.9376 33.75H60.9189C61.5376 35.5106 61.8751 37.4062 61.8751 39.375C61.8803 43.5269 60.3496 47.534 57.5776 50.625H59.0626Z" fill="#175ED2"/>
<path d="M66.8644 61.47C67.275 62.46 67.5 63.5513 67.5 64.6875C67.5 70.965 64.9182 75.9938 60.6825 79.3969C56.5144 82.7438 50.9232 84.375 45 84.375C39.0769 84.375 33.4857 82.7438 29.3175 79.3969C25.0875 75.9938 22.5 70.965 22.5 64.6875C22.4971 63.5787 22.7133 62.4802 23.1363 61.4551C23.5592 60.4301 24.1806 59.4988 24.9647 58.7147C25.7488 57.9306 26.6801 57.3092 27.7051 56.8863C28.7302 56.4633 29.8287 56.2471 30.9375 56.25H59.0625C60.7337 56.2496 62.3674 56.7456 63.7564 57.6749C65.1454 58.6042 66.2271 59.9251 66.8644 61.47Z" fill="#175ED2"/>
</svg>
